<svg width="180" height="52" viewBox="0 0 180 52" fill="none" xmlns="http://www.w3.org/2000/svg">
<path d="M179 46.0031C179 48.7742 176.709 51.0189 173.874 51.0189H6.13243C3.2995 51.0189 1 48.7742 1 46.0031V6.00351C1 3.23368 3.2995 0.98114 6.13243 0.98114H173.873C176.709 0.98114 178.999 3.23368 178.999 6.00351L179 46.0031Z" fill="black"/>
<path d="M173.333 1.04163C176.42 1.04163 178.932 3.4905 178.932 6.5V45.5C178.932 48.5095 176.42 50.9584 173.333 50.9584H6.66667C3.58 50.9584 1.06833 48.5095 1.06833 45.5V6.5C1.06833 3.4905 3.58 1.04163 6.66667 1.04163H173.333ZM173.333 2.74817e-06H6.66667C3.00167 2.74817e-06 0 2.92663 0 6.5V45.5C0 49.0734 3.00167 52 6.66667 52H173.333C176.998 52 180 49.0734 180 45.5V6.5C180 2.92663 176.998 2.74817e-06 173.333 2.74817e-06Z" fill="#A6A6A6"/>
<path d="M40.1707 25.7192C40.132 21.5293 43.6894 19.4909 43.852 19.396C41.8374 16.5321 38.7147 16.1408 37.6174 16.1096C34.9947 15.8405 32.4507 17.6397 31.1147 17.6397C29.752 17.6397 27.6947 16.1356 25.4774 16.1798C22.624 16.2227 19.9547 17.8334 18.4907 20.3346C15.4694 25.4345 17.7227 32.929 20.6174 37.0513C22.0654 39.0702 23.7574 41.3244 25.972 41.2451C28.1387 41.158 28.948 39.8983 31.5627 39.8983C34.1534 39.8983 34.9134 41.2451 37.172 41.1944C39.4974 41.158 40.9614 39.1664 42.3587 37.1293C44.032 34.8153 44.704 32.5364 44.7307 32.4194C44.676 32.4012 40.2147 30.7411 40.1707 25.7192Z" fill="white"/>
<path d="M35.904 13.3978C37.0694 11.9769 37.8667 10.0438 37.6454 8.08209C35.9587 8.15489 33.8494 9.21959 32.6347 10.6093C31.56 11.8339 30.6 13.8411 30.848 15.7287C32.7427 15.8665 34.688 14.7966 35.904 13.3978Z" fill="white"/>
<path d="M71.5266 40.9552H68.4986L66.84 35.8735H61.0746L59.4946 40.9552H56.5466L62.2586 23.6548H65.7866L71.5266 40.9552ZM66.34 33.7415L64.84 29.224C64.6813 28.7625 64.384 27.6757 63.9453 25.9649H63.892C63.7173 26.7007 63.436 27.7875 63.0493 29.224L61.576 33.7415H66.34V33.7415Z" fill="white"/>
<path d="M86.2159 34.5644C86.2159 36.686 85.6279 38.363 84.4519 39.5941C83.3985 40.69 82.0905 41.2373 80.5292 41.2373C78.8439 41.2373 77.6332 40.6471 76.8959 39.4667H76.8425V46.0382H73.9999V32.5871C73.9999 31.2533 73.9639 29.8844 73.8945 28.4804H76.3945L76.5532 30.4577H76.6065C77.5545 28.9679 78.9932 28.2243 80.9239 28.2243C82.4332 28.2243 83.6932 28.8054 84.7012 29.9689C85.7119 31.1337 86.2159 32.6651 86.2159 34.5644ZM83.3199 34.6658C83.3199 33.4516 83.0399 32.4506 82.4772 31.6628C81.8625 30.8412 81.0372 30.4304 80.0025 30.4304C79.3012 30.4304 78.6639 30.6592 78.0945 31.1103C77.5239 31.5653 77.1505 32.1594 76.9759 32.8952C76.8879 33.2384 76.8439 33.5192 76.8439 33.7402V35.8202C76.8439 36.7276 77.1292 37.4933 77.6999 38.1186C78.2705 38.7439 79.0119 39.0559 79.9239 39.0559C80.9945 39.0559 81.8279 38.6529 82.4239 37.8495C83.0212 37.0448 83.3199 35.984 83.3199 34.6658Z" fill="white"/>
<path d="M100.932 34.5644C100.932 36.686 100.344 38.363 99.1667 39.5941C98.1147 40.69 96.8067 41.2373 95.2454 41.2373C93.5601 41.2373 92.3494 40.6471 91.6134 39.4667H91.5601V46.0382H88.7174V32.5871C88.7174 31.2533 88.6814 29.8844 88.6121 28.4804H91.1121L91.2707 30.4577H91.3241C92.2707 28.9679 93.7094 28.2243 95.6414 28.2243C97.1494 28.2243 98.4094 28.8054 99.4201 29.9689C100.427 31.1337 100.932 32.6651 100.932 34.5644ZM98.0361 34.6658C98.0361 33.4516 97.7547 32.4506 97.1921 31.6628C96.5774 30.8412 95.7547 30.4304 94.7187 30.4304C94.0161 30.4304 93.3801 30.6592 92.8094 31.1103C92.2387 31.5653 91.8667 32.1594 91.6921 32.8952C91.6054 33.2384 91.5601 33.5192 91.5601 33.7402V35.8202C91.5601 36.7276 91.8454 37.4933 92.4134 38.1186C92.9841 38.7426 93.7254 39.0559 94.6401 39.0559C95.7107 39.0559 96.5441 38.6529 97.1401 37.8495C97.7374 37.0448 98.0361 35.984 98.0361 34.6658Z" fill="white"/>
<path d="M117.385 36.1036C117.385 37.5752 116.861 38.7725 115.809 39.6968C114.653 40.7069 113.044 41.2113 110.976 41.2113C109.067 41.2113 107.536 40.8525 106.377 40.1336L107.036 37.8235C108.284 38.5593 109.653 38.9285 111.145 38.9285C112.216 38.9285 113.049 38.6919 113.648 38.2213C114.244 37.7507 114.541 37.1189 114.541 36.3311C114.541 35.6291 114.296 35.0376 113.804 34.5579C113.315 34.0782 112.497 33.6323 111.356 33.2202C108.249 32.0905 106.697 30.4356 106.697 28.2594C106.697 26.8372 107.241 25.6711 108.331 24.7637C109.416 23.855 110.864 23.4013 112.675 23.4013C114.289 23.4013 115.631 23.6756 116.701 24.2229L115.991 26.4823C114.991 25.9519 113.86 25.6867 112.595 25.6867C111.595 25.6867 110.813 25.9272 110.253 26.4056C109.78 26.8333 109.543 27.3546 109.543 27.9721C109.543 28.6559 109.813 29.2214 110.357 29.666C110.831 30.0768 111.691 30.5214 112.939 31.0011C114.465 31.6004 115.587 32.3011 116.308 33.1045C117.027 33.9053 117.385 34.9076 117.385 36.1036Z" fill="white"/>
<path d="M126.784 30.5604H123.651V36.6171C123.651 38.1576 124.203 38.9272 125.309 38.9272C125.817 38.9272 126.239 38.8843 126.572 38.7985L126.651 40.9032C126.091 41.1073 125.353 41.21 124.44 41.21C123.317 41.21 122.44 40.8759 121.807 40.209C121.176 39.5408 120.859 38.4202 120.859 36.8459V30.5578H118.992V28.4778H120.859V26.1937L123.651 25.3721V28.4778H126.784V30.5604Z" fill="white"/>
<path d="M140.921 34.6151C140.921 36.5326 140.358 38.1069 139.236 39.338C138.058 40.6055 136.496 41.2373 134.548 41.2373C132.67 41.2373 131.176 40.6302 130.061 39.416C128.946 38.2018 128.389 36.6691 128.389 34.8218C128.389 32.8887 128.962 31.3053 130.113 30.0742C131.261 28.8418 132.81 28.2256 134.758 28.2256C136.636 28.2256 138.146 28.8327 139.286 30.0482C140.377 31.2273 140.921 32.7496 140.921 34.6151ZM137.972 34.7048C137.972 33.5543 137.72 32.5676 137.209 31.7447C136.613 30.7489 135.761 30.2523 134.657 30.2523C133.514 30.2523 132.646 30.7502 132.05 31.7447C131.54 32.5689 131.288 33.5712 131.288 34.7568C131.288 35.9073 131.54 36.894 132.05 37.7156C132.665 38.7114 133.524 39.208 134.632 39.208C135.717 39.208 136.569 38.701 137.184 37.6896C137.708 36.8511 137.972 35.854 137.972 34.7048Z" fill="white"/>
<path d="M150.161 30.9179C149.88 30.8672 149.58 30.8412 149.265 30.8412C148.265 30.8412 147.492 31.2091 146.948 31.9462C146.475 32.5962 146.237 33.4178 146.237 34.4097V40.9552H143.396L143.423 32.409C143.423 30.9712 143.387 29.6621 143.316 28.4817H145.792L145.896 30.8685H145.975C146.275 30.0482 146.748 29.3878 147.396 28.8925C148.029 28.4466 148.713 28.2243 149.451 28.2243C149.713 28.2243 149.951 28.2425 150.161 28.275V30.9179Z" fill="white"/>
<path d="M162.875 34.1276C162.875 34.6242 162.841 35.0428 162.771 35.3847H154.243C154.276 36.6171 154.688 37.5596 155.48 38.2096C156.199 38.7907 157.128 39.0819 158.269 39.0819C159.532 39.0819 160.684 38.8856 161.72 38.4917L162.165 40.4157C160.955 40.9305 159.525 41.1866 157.876 41.1866C155.892 41.1866 154.335 40.6172 153.201 39.4797C152.071 38.3422 151.504 36.8147 151.504 34.8985C151.504 33.0174 152.031 31.4509 153.085 30.2016C154.189 28.8678 155.681 28.2009 157.559 28.2009C159.403 28.2009 160.799 28.8678 161.747 30.2016C162.497 31.2611 162.875 32.5715 162.875 34.1276ZM160.164 33.4087C160.183 32.5871 159.997 31.8773 159.612 31.278C159.12 30.5071 158.364 30.1223 157.347 30.1223C156.417 30.1223 155.661 30.498 155.084 31.252C154.611 31.8513 154.329 32.5702 154.243 33.4074H160.164V33.4087Z" fill="white"/>
<path d="M60.9141 18.1094C60.3776 18.1094 59.8984 18.0169 59.4766 17.832C59.0573 17.6471 58.7253 17.3906 58.4805 17.0625C58.2383 16.7318 58.1081 16.349 58.0898 15.9141H59.3164C59.332 16.151 59.4115 16.3568 59.5547 16.5312C59.7005 16.7031 59.8906 16.8359 60.125 16.9297C60.3594 17.0234 60.6198 17.0703 60.9063 17.0703C61.2214 17.0703 61.5 17.0156 61.7422 16.9062C61.987 16.7969 62.1784 16.6445 62.3164 16.4492C62.4544 16.2513 62.5234 16.0234 62.5234 15.7656C62.5234 15.4974 62.4544 15.2617 62.3164 15.0586C62.181 14.8529 61.9818 14.6914 61.7188 14.5742C61.4583 14.457 61.1432 14.3984 60.7734 14.3984H60.0977V13.4141H60.7734C61.0703 13.4141 61.3307 13.3607 61.5547 13.2539C61.7813 13.1471 61.9583 12.9987 62.0859 12.8086C62.2135 12.6159 62.2773 12.3906 62.2773 12.1328C62.2773 11.8854 62.2214 11.6706 62.1094 11.4883C62 11.3034 61.8438 11.1589 61.6406 11.0547C61.4401 10.9505 61.2031 10.8984 60.9297 10.8984C60.6693 10.8984 60.4258 10.9466 60.1992 11.043C59.9753 11.1367 59.793 11.2721 59.6523 11.4492C59.5117 11.6237 59.4362 11.8333 59.4258 12.0781H58.2578C58.2708 11.6458 58.3984 11.2656 58.6406 10.9375C58.8854 10.6094 59.2083 10.3529 59.6094 10.168C60.0104 9.98307 60.4557 9.89062 60.9453 9.89062C61.4583 9.89062 61.901 9.99089 62.2734 10.1914C62.6484 10.3893 62.9375 10.6536 63.1406 10.9844C63.3464 11.3151 63.4479 11.6771 63.4453 12.0703C63.4479 12.5182 63.3229 12.8984 63.0703 13.2109C62.8203 13.5234 62.487 13.7331 62.0703 13.8398V13.9023C62.6016 13.9831 63.013 14.194 63.3047 14.5352C63.599 14.8763 63.7448 15.2995 63.7422 15.8047C63.7448 16.2448 63.6224 16.6393 63.375 16.9883C63.1302 17.3372 62.7956 17.612 62.3711 17.8125C61.9466 18.0104 61.4609 18.1094 60.9141 18.1094ZM66.9805 18.1328C66.6003 18.1328 66.2565 18.0625 65.9492 17.9219C65.6419 17.7786 65.3984 17.5716 65.2188 17.3008C65.0417 17.0299 64.9531 16.6979 64.9531 16.3047C64.9531 15.9661 65.0182 15.6875 65.1484 15.4687C65.2786 15.25 65.4544 15.0768 65.6758 14.9492C65.8971 14.8216 66.1445 14.7253 66.418 14.6602C66.6914 14.5951 66.9701 14.5456 67.2539 14.5117C67.6133 14.4701 67.9049 14.4362 68.1289 14.4102C68.3529 14.3815 68.5156 14.3359 68.6172 14.2734C68.7188 14.2109 68.7695 14.1094 68.7695 13.9687V13.9414C68.7695 13.6003 68.6732 13.3359 68.4805 13.1484C68.2904 12.9609 68.0065 12.8672 67.6289 12.8672C67.2357 12.8672 66.9258 12.9544 66.6992 13.1289C66.4753 13.3008 66.3203 13.4922 66.2344 13.7031L65.1367 13.4531C65.2669 13.0885 65.457 12.7943 65.707 12.5703C65.9596 12.3437 66.25 12.1797 66.5781 12.0781C66.9063 11.974 67.2513 11.9219 67.6133 11.9219C67.8529 11.9219 68.1068 11.9505 68.375 12.0078C68.6458 12.0625 68.8984 12.1641 69.1328 12.3125C69.3698 12.4609 69.5638 12.6732 69.7148 12.9492C69.8659 13.2227 69.9414 13.5781 69.9414 14.0156V18H68.8008V17.1797H68.7539C68.6784 17.3307 68.5651 17.4792 68.4141 17.625C68.263 17.7708 68.069 17.8919 67.832 17.9883C67.5951 18.0846 67.3112 18.1328 66.9805 18.1328ZM67.2344 17.1953C67.5573 17.1953 67.8333 17.1315 68.0625 17.0039C68.2943 16.8763 68.4701 16.7096 68.5898 16.5039C68.7122 16.2956 68.7734 16.0729 68.7734 15.8359V15.0625C68.7318 15.1042 68.651 15.1432 68.5312 15.1797C68.4141 15.2135 68.2799 15.2435 68.1289 15.2695C67.9779 15.293 67.8307 15.3151 67.6875 15.3359C67.5443 15.3542 67.4245 15.3698 67.3281 15.3828C67.1016 15.4115 66.8945 15.4596 66.707 15.5273C66.5221 15.5951 66.3737 15.6927 66.2617 15.8203C66.1523 15.9453 66.0977 16.112 66.0977 16.3203C66.0977 16.6094 66.2044 16.8281 66.418 16.9766C66.6315 17.1224 66.9036 17.1953 67.2344 17.1953ZM75.333 12V13.0078H72.6494V18H71.4971V12H75.333ZM76.5674 20.25V12H77.708V12.9727H77.8057C77.8734 12.8477 77.971 12.7031 78.0986 12.5391C78.2262 12.375 78.4033 12.2318 78.6299 12.1094C78.8564 11.9844 79.1559 11.9219 79.5283 11.9219C80.0127 11.9219 80.445 12.0443 80.8252 12.2891C81.2054 12.5339 81.5036 12.8867 81.7197 13.3477C81.9385 13.8086 82.0479 14.3633 82.0479 15.0117C82.0479 15.6602 81.9398 16.2161 81.7236 16.6797C81.5075 17.1406 81.2106 17.4961 80.833 17.7461C80.4554 17.9935 80.0244 18.1172 79.54 18.1172C79.1755 18.1172 78.8773 18.056 78.6455 17.9336C78.4163 17.8112 78.2367 17.668 78.1064 17.5039C77.9762 17.3398 77.876 17.194 77.8057 17.0664H77.7354V20.25H76.5674ZM77.7119 15C77.7119 15.4219 77.7731 15.7917 77.8955 16.1094C78.0179 16.4271 78.195 16.6758 78.4268 16.8555C78.6585 17.0326 78.9424 17.1211 79.2783 17.1211C79.6273 17.1211 79.9189 17.0286 80.1533 16.8437C80.3877 16.6562 80.5648 16.4023 80.6846 16.082C80.807 15.7617 80.8682 15.401 80.8682 15C80.8682 14.6042 80.8083 14.2487 80.6885 13.9336C80.5713 13.6185 80.3942 13.3698 80.1572 13.1875C79.9229 13.0052 79.6299 12.9141 79.2783 12.9141C78.9398 12.9141 78.6533 13.0013 78.4189 13.1758C78.1872 13.3503 78.0114 13.5937 77.8916 13.9062C77.7718 14.2187 77.7119 14.5833 77.7119 15ZM83.8906 20.25C83.7161 20.25 83.5573 20.2357 83.4141 20.207C83.2708 20.181 83.1641 20.1523 83.0938 20.1211L83.375 19.1641C83.5885 19.2214 83.7786 19.2461 83.9453 19.2383C84.112 19.2305 84.2591 19.168 84.3867 19.0508C84.5169 18.9336 84.6315 18.7422 84.7305 18.4766L84.875 18.0781L82.6797 12H83.9297L85.4492 16.6562H85.5117L87.0313 12H88.2852L85.8125 18.8008C85.6979 19.1133 85.5521 19.3776 85.375 19.5938C85.1979 19.8125 84.987 19.9766 84.7422 20.0859C84.4974 20.1953 84.2135 20.25 83.8906 20.25ZM89.0273 16.4141H90.2227C90.2383 16.6589 90.349 16.8477 90.5547 16.9805C90.763 17.1133 91.0326 17.1797 91.3633 17.1797C91.6992 17.1797 91.9857 17.1081 92.2227 16.9648C92.4596 16.819 92.5781 16.5937 92.5781 16.2891C92.5781 16.1068 92.5326 15.9479 92.4414 15.8125C92.3529 15.6745 92.2266 15.5677 92.0625 15.4922C91.901 15.4167 91.7096 15.3789 91.4883 15.3789H90.5117V14.4609H91.4883C91.819 14.4609 92.0664 14.3854 92.2305 14.2344C92.3945 14.0833 92.4766 13.8945 92.4766 13.668C92.4766 13.4232 92.388 13.2266 92.2109 13.0781C92.0365 12.9271 91.793 12.8516 91.4805 12.8516C91.1628 12.8516 90.8984 12.9232 90.6875 13.0664C90.4766 13.207 90.3659 13.3893 90.3555 13.6133H89.1758C89.1836 13.2773 89.2852 12.9831 89.4805 12.7305C89.6784 12.4753 89.944 12.2773 90.2773 12.1367C90.6133 11.9935 90.9948 11.9219 91.4219 11.9219C91.8672 11.9219 92.2526 11.9935 92.5781 12.1367C92.9036 12.2799 93.1549 12.4779 93.332 12.7305C93.5117 12.9831 93.6016 13.2734 93.6016 13.6016C93.6016 13.9323 93.5026 14.2031 93.3047 14.4141C93.1094 14.6224 92.8542 14.7721 92.5391 14.8633V14.9258C92.7708 14.9414 92.9766 15.0117 93.1563 15.1367C93.3359 15.2617 93.4766 15.4271 93.5781 15.6328C93.6797 15.8385 93.7305 16.0716 93.7305 16.332C93.7305 16.6992 93.6289 17.0169 93.4258 17.2852C93.2253 17.5534 92.9466 17.7604 92.5898 17.9062C92.2357 18.0495 91.8307 18.1211 91.375 18.1211C90.9323 18.1211 90.5352 18.0521 90.1836 17.9141C89.8346 17.7734 89.5573 17.5755 89.3516 17.3203C89.1484 17.0651 89.0404 16.763 89.0273 16.4141ZM96.0811 16.3633L98.7256 12H99.9834V18H98.8389V13.6328L96.2061 18H94.9365V12H96.0811V16.3633ZM100.81 13.0078V12H105.872V13.0078H103.915V18H102.774V13.0078H100.81ZM109.414 18.1211C108.823 18.1211 108.314 17.9948 107.887 17.7422C107.462 17.487 107.134 17.1289 106.902 16.668C106.673 16.2044 106.559 15.6615 106.559 15.0391C106.559 14.4245 106.673 13.8828 106.902 13.4141C107.134 12.9453 107.457 12.5794 107.871 12.3164C108.288 12.0534 108.775 11.9219 109.332 11.9219C109.671 11.9219 109.999 11.9779 110.316 12.0898C110.634 12.2018 110.919 12.3776 111.172 12.6172C111.424 12.8568 111.624 13.168 111.77 13.5508C111.915 13.931 111.988 14.3932 111.988 14.9375V15.3516H107.219V14.4766H110.844C110.844 14.1693 110.781 13.8971 110.656 13.6602C110.531 13.4206 110.355 13.2318 110.129 13.0937C109.905 12.9557 109.642 12.8867 109.34 12.8867C109.012 12.8867 108.725 12.9674 108.48 13.1289C108.238 13.2878 108.051 13.4961 107.918 13.7539C107.788 14.0091 107.723 14.2865 107.723 14.5859V15.2695C107.723 15.6706 107.793 16.0117 107.934 16.293C108.077 16.5742 108.276 16.7891 108.531 16.9375C108.786 17.0833 109.085 17.1562 109.426 17.1562C109.647 17.1562 109.849 17.125 110.031 17.0625C110.214 16.9974 110.371 16.901 110.504 16.7734C110.637 16.6458 110.738 16.4883 110.809 16.3008L111.914 16.5C111.826 16.8255 111.667 17.1107 111.438 17.3555C111.211 17.5977 110.926 17.7865 110.582 17.9219C110.241 18.0547 109.852 18.1211 109.414 18.1211ZM116.195 18V12H118.684C119.361 12 119.897 12.1445 120.293 12.4336C120.689 12.7201 120.887 13.1094 120.887 13.6016C120.887 13.9531 120.775 14.2318 120.551 14.4375C120.327 14.6432 120.03 14.7813 119.66 14.8516C119.928 14.8828 120.174 14.9635 120.398 15.0937C120.622 15.2214 120.802 15.3932 120.938 15.6094C121.076 15.8255 121.145 16.0833 121.145 16.3828C121.145 16.7005 121.063 16.9818 120.898 17.2266C120.734 17.4687 120.496 17.6589 120.184 17.7969C119.874 17.9323 119.5 18 119.062 18H116.195ZM117.293 17.0234H119.062C119.352 17.0234 119.578 16.9544 119.742 16.8164C119.906 16.6784 119.988 16.4909 119.988 16.2539C119.988 15.9753 119.906 15.7565 119.742 15.5977C119.578 15.4362 119.352 15.3555 119.062 15.3555H117.293V17.0234ZM117.293 14.5H118.695C118.914 14.5 119.102 14.4687 119.258 14.4062C119.417 14.3437 119.538 14.2552 119.621 14.1406C119.707 14.0234 119.75 13.8854 119.75 13.7266C119.75 13.4948 119.655 13.3138 119.465 13.1836C119.275 13.0534 119.014 12.9883 118.684 12.9883H117.293V14.5Z" fill="white"/>
</svg>
