<svg width="180" height="54" viewBox="0 0 180 54" fill="none" xmlns="http://www.w3.org/2000/svg">
<path d="M173.333 0H6.66667C2.98477 0 0 2.98477 0 6.66667V46.6667C0 50.3486 2.98477 53.3333 6.66667 53.3333H173.333C177.015 53.3333 180 50.3486 180 46.6667V6.66667C180 2.98477 177.015 0 173.333 0Z" fill="black"/>
<path d="M173.333 1.06667C174.819 1.06667 176.243 1.65666 177.293 2.70687C178.343 3.75707 178.933 5.18145 178.933 6.66667V46.6667C178.933 48.1519 178.343 49.5763 177.293 50.6265C176.243 51.6767 174.819 52.2667 173.333 52.2667H6.66667C5.18145 52.2667 3.75707 51.6767 2.70687 50.6265C1.65666 49.5763 1.06667 48.1519 1.06667 46.6667V6.66667C1.06667 5.18145 1.65666 3.75707 2.70687 2.70687C3.75707 1.65666 5.18145 1.06667 6.66667 1.06667H173.333ZM173.333 0H6.66667C4.89856 0 3.20286 0.702379 1.95262 1.95262C0.702379 3.20286 0 4.89856 0 6.66667V46.6667C0 48.4348 0.702379 50.1305 1.95262 51.3807C3.20286 52.631 4.89856 53.3333 6.66667 53.3333H173.333C175.101 53.3333 176.797 52.631 178.047 51.3807C179.298 50.1305 180 48.4348 180 46.6667V6.66667C180 4.89856 179.298 3.20286 178.047 1.95262C176.797 0.702379 175.101 0 173.333 0Z" fill="#A6A6A6"/>
<path d="M90.8534 29C89.7338 29.0052 88.6408 29.3421 87.7125 29.9679C86.7841 30.5938 86.0619 31.4806 85.6371 32.5165C85.2123 33.5524 85.1039 34.6909 85.3255 35.7884C85.5472 36.8859 86.089 37.8931 86.8825 38.6829C87.6761 39.4727 88.6858 40.0098 89.7843 40.2263C90.8828 40.4428 92.0208 40.329 93.0547 39.8994C94.0886 39.4697 94.972 38.7434 95.5935 37.8121C96.215 36.8808 96.5467 35.7863 96.5467 34.6666C96.5576 33.9172 96.4176 33.1733 96.1349 32.4791C95.8523 31.7849 95.4329 31.1547 94.9017 30.626C94.3705 30.0973 93.7383 29.6808 93.0428 29.4015C92.3473 29.1221 91.6027 28.9856 90.8534 29ZM90.8534 38.1066C90.1648 38.1548 89.4777 37.9947 88.8813 37.6472C88.285 37.2996 87.807 36.7807 87.5094 36.1579C87.2119 35.5351 87.1086 34.8371 87.213 34.1548C87.3173 33.4725 87.6246 32.8374 88.0947 32.332C88.5648 31.8266 89.1761 31.4744 89.8491 31.321C90.5221 31.1676 91.2256 31.2203 91.8683 31.4721C92.511 31.7239 93.063 32.1632 93.4527 32.7329C93.8424 33.3026 94.0517 33.9764 94.0534 34.6666C94.0749 35.104 94.0085 35.5412 93.8584 35.9525C93.7082 36.3638 93.4771 36.7409 93.1789 37.0615C92.8807 37.3822 92.5212 37.6398 92.1218 37.8193C91.7224 37.9988 91.2911 38.0965 90.8534 38.1066ZM78.4401 29C77.3199 29.0026 76.2256 29.3372 75.2955 29.9615C74.3653 30.5857 73.6411 31.4716 73.2143 32.5073C72.7874 33.543 72.6771 34.682 72.8972 35.7803C73.1174 36.8786 73.6581 37.8871 74.4512 38.6783C75.2442 39.4694 76.2539 40.0078 77.3528 40.2254C78.4516 40.443 79.5903 40.33 80.625 39.9007C81.6597 39.4714 82.5439 38.7451 83.166 37.8135C83.788 36.8819 84.12 35.7868 84.12 34.6666C84.1309 33.9172 83.9909 33.1733 83.7083 32.4791C83.4257 31.7849 83.0063 31.1547 82.4751 30.626C81.9438 30.0973 81.3117 29.6808 80.6162 29.4015C79.9207 29.1221 79.1761 28.9856 78.4267 29H78.4401ZM78.4401 38.1066C77.7512 38.1575 77.0629 37.9998 76.4649 37.654C75.8669 37.3083 75.3868 36.7905 75.0872 36.1681C74.7876 35.5457 74.6823 34.8475 74.785 34.1644C74.8877 33.4813 75.1937 32.845 75.6631 32.3382C76.1326 31.8315 76.7437 31.4778 77.4169 31.3232C78.0902 31.1686 78.7944 31.2203 79.4379 31.4716C80.0813 31.7228 80.6342 32.1619 81.0246 32.7318C81.4151 33.3017 81.6248 33.9759 81.6267 34.6666C81.6482 35.104 81.5819 35.5412 81.4317 35.9525C81.2815 36.3638 81.0505 36.7409 80.7522 37.0615C80.454 37.3822 80.0946 37.6398 79.6952 37.8193C79.2958 37.9988 78.8645 38.0965 78.4267 38.1066H78.4401ZM63.6534 30.7466V33.1466H69.4134C69.3231 34.277 68.8532 35.3437 68.0801 36.1733C67.5038 36.7603 66.811 37.2201 66.0463 37.5232C65.2816 37.8264 64.462 37.966 63.6401 37.9333C61.9427 37.9333 60.3148 37.259 59.1146 36.0588C57.9143 34.8586 57.2401 33.2307 57.2401 31.5333C57.2401 29.8359 57.9143 28.2081 59.1146 27.0078C60.3148 25.8076 61.9427 25.1333 63.6401 25.1333C65.2638 25.1068 66.8317 25.7254 68.0001 26.8533L69.6934 25.16C68.9047 24.3613 67.9637 23.7292 66.9262 23.3009C65.8887 22.8726 64.7758 22.6569 63.6534 22.6666C62.468 22.6205 61.2856 22.8141 60.1769 23.2359C59.0682 23.6577 58.056 24.299 57.2011 25.1213C56.3461 25.9436 55.666 26.9301 55.2014 28.0216C54.7368 29.113 54.4973 30.2871 54.4973 31.4733C54.4973 32.6595 54.7368 33.8336 55.2014 34.925C55.666 36.0165 56.3461 37.003 57.2011 37.8253C58.056 38.6476 59.0682 39.2889 60.1769 39.7107C61.2856 40.1325 62.468 40.3261 63.6534 40.28C64.7947 40.3315 65.9337 40.1381 66.994 39.7126C68.0542 39.2871 69.011 38.6395 69.8 37.8133C71.197 36.2785 71.9428 34.261 71.8801 32.1866C71.8844 31.6813 71.8397 31.1767 71.7467 30.68L63.6534 30.7466ZM124.067 32.6133C123.719 31.5903 123.069 30.697 122.202 30.0518C121.335 29.4065 120.293 29.0397 119.213 29C118.484 28.9985 117.762 29.1467 117.092 29.4354C116.423 29.724 115.819 30.1469 115.319 30.678C114.819 31.2091 114.434 31.8371 114.186 32.5232C113.939 33.2092 113.834 33.9387 113.88 34.6666C113.864 35.4119 113.998 36.1527 114.275 36.8449C114.551 37.5371 114.964 38.1665 115.489 38.6954C116.015 39.2243 116.641 39.642 117.331 39.9234C118.022 40.2048 118.761 40.3442 119.507 40.3333C120.439 40.3383 121.359 40.112 122.182 39.6745C123.006 39.2371 123.709 38.6022 124.227 37.8266L122.293 36.4933C122.005 36.9743 121.596 37.3722 121.108 37.648C120.619 37.9238 120.068 38.0681 119.507 38.0666C118.929 38.0887 118.358 37.9364 117.869 37.6296C117.379 37.3229 116.992 36.8758 116.76 36.3466L124.347 33.2133L124.067 32.6133ZM116.333 34.5066C116.306 34.0942 116.362 33.6806 116.497 33.2899C116.632 32.8992 116.843 32.5394 117.119 32.2314C117.394 31.9235 117.729 31.6736 118.102 31.4965C118.476 31.3194 118.881 31.2186 119.293 31.2C119.723 31.1716 120.152 31.2703 120.527 31.4836C120.901 31.6969 121.205 32.0156 121.4 32.4L116.333 34.5066ZM110.173 40H112.667V23.3333H110.173V40ZM106.093 30.2666H106C105.624 29.8465 105.164 29.5105 104.649 29.2808C104.135 29.051 103.577 28.9326 103.013 28.9333C101.556 29.004 100.182 29.6325 99.176 30.6887C98.1698 31.745 97.6085 33.1478 97.6085 34.6066C97.6085 36.0654 98.1698 37.4683 99.176 38.5245C100.182 39.5807 101.556 40.2093 103.013 40.28C103.578 40.2895 104.139 40.175 104.655 39.9447C105.171 39.7143 105.63 39.3736 106 38.9466H106.08V39.76C106.08 41.9333 104.92 43.0933 103.053 43.0933C102.432 43.0788 101.828 42.8795 101.32 42.521C100.812 42.1625 100.422 41.6608 100.2 41.08L98.0267 41.9866C98.4358 42.9818 99.1329 43.832 100.029 44.4283C100.924 45.0246 101.977 45.3397 103.053 45.3333C105.973 45.3333 108.387 43.6133 108.387 39.4266V29.3333H106.093V30.2666ZM103.24 38.1066C102.38 38.0308 101.58 37.6356 100.996 36.9989C100.413 36.3621 100.09 35.53 100.09 34.6666C100.09 33.8032 100.413 32.9712 100.996 32.3344C101.58 31.6977 102.38 31.3024 103.24 31.2266C103.666 31.2485 104.084 31.3555 104.469 31.5414C104.853 31.7272 105.196 31.9881 105.479 32.3086C105.761 32.6292 105.976 33.003 106.111 33.408C106.246 33.8129 106.299 34.2409 106.267 34.6666C106.303 35.0942 106.252 35.5248 106.118 35.9322C105.983 36.3396 105.767 36.7155 105.483 37.037C105.199 37.3586 104.852 37.6192 104.464 37.803C104.077 37.9869 103.656 38.0902 103.227 38.1066H103.24ZM135.747 23.3333H129.787V40H132.28V33.68H135.76C136.471 33.731 137.184 33.6351 137.856 33.3983C138.528 33.1614 139.144 32.7887 139.665 32.3033C140.187 31.8179 140.603 31.2303 140.887 30.5771C141.172 29.9239 141.318 29.2191 141.318 28.5066C141.318 27.7942 141.172 27.0894 140.887 26.4362C140.603 25.783 140.187 25.1954 139.665 24.71C139.144 24.2246 138.528 23.8519 137.856 23.615C137.184 23.3781 136.471 23.2823 135.76 23.3333H135.747ZM135.747 31.3333H132.267V25.6533H135.8C136.559 25.6533 137.286 25.9546 137.822 26.491C138.359 27.0273 138.66 27.7548 138.66 28.5133C138.66 29.2718 138.359 29.9993 137.822 30.5356C137.286 31.072 136.559 31.3733 135.8 31.3733L135.747 31.3333ZM151.12 28.9333C150.212 28.8791 149.309 29.0912 148.52 29.5436C147.731 29.996 147.092 30.6691 146.68 31.48L148.893 32.4C149.112 31.9978 149.442 31.6677 149.844 31.4499C150.247 31.2321 150.704 31.136 151.16 31.1733C151.477 31.1363 151.797 31.1628 152.103 31.2511C152.41 31.3394 152.695 31.4878 152.943 31.6876C153.192 31.8874 153.398 32.1347 153.549 32.4149C153.701 32.6952 153.795 33.0029 153.827 33.32V33.4933C153.026 33.0693 152.133 32.8495 151.227 32.8533C148.84 32.8533 146.427 34.1866 146.427 36.6C146.45 37.1146 146.577 37.6192 146.799 38.084C147.021 38.5489 147.334 38.9645 147.719 39.3064C148.104 39.6482 148.554 39.9093 149.042 40.0743C149.53 40.2392 150.046 40.3046 150.56 40.2666C151.188 40.3117 151.816 40.187 152.379 39.9054C152.942 39.6239 153.419 39.196 153.76 38.6666H153.84V40H156.24V33.5866C156.24 30.6666 154.027 28.9733 151.187 28.9733L151.12 28.9333ZM150.813 38.0666C150 38.0666 148.867 37.6533 148.867 36.6533C148.867 35.32 150.28 34.88 151.533 34.88C152.325 34.8604 153.108 35.0538 153.8 35.44C153.717 36.1618 153.375 36.8293 152.839 37.3193C152.302 37.8093 151.607 38.0889 150.88 38.1066L150.813 38.0666ZM164.987 29.3333L162.133 36.56H162.053L159.093 29.3333H156.427L160.867 39.44L158.333 45.0533H160.933L167.76 29.3333H164.987ZM142.573 40H145.067V23.3333H142.573V40Z" fill="white"/>
<path d="M13.9199 10.0533C13.4853 10.5748 13.2659 11.2424 13.3065 11.92V41.4133C13.2659 42.0909 13.4853 42.7585 13.9199 43.28L14.0132 43.3733L30.5332 26.8666V26.48L14.0132 9.95996L13.9199 10.0533Z" fill="url(#paint0_linear_40_200)"/>
<path d="M35.9999 32.3733L30.5332 26.8666V26.48L35.9999 20.96L36.1199 21.0266L42.6665 24.7466C44.5332 25.8 44.5332 27.5333 42.6665 28.6L36.1465 32.3066L35.9999 32.3733Z" fill="url(#paint1_linear_40_200)"/>
<path d="M36.1599 32.2934L30.5333 26.6667L13.9199 43.28C14.3004 43.6145 14.7858 43.8055 15.2922 43.8201C15.7985 43.8348 16.2941 43.672 16.6933 43.36L36.1733 32.2934" fill="url(#paint2_linear_40_200)"/>
<path d="M36.1598 21.04L16.6798 9.9733C16.2807 9.66131 15.7851 9.49857 15.2787 9.51317C14.7724 9.52778 14.287 9.71883 13.9065 10.0533L30.5332 26.6666L36.1598 21.04Z" fill="url(#paint3_linear_40_200)"/>
<path opacity="0.2" d="M35.9999 32.1733L16.6799 43.1733C16.295 43.4612 15.8272 43.6167 15.3466 43.6167C14.8659 43.6167 14.3982 43.4612 14.0133 43.1733L13.9199 43.2667L14.0133 43.36C14.3973 43.6499 14.8654 43.8067 15.3466 43.8067C15.8278 43.8067 16.2958 43.6499 16.6799 43.36L36.1599 32.2933L35.9999 32.1733Z" fill="black"/>
<path opacity="0.12" d="M13.9199 43.0934C13.4853 42.5719 13.2659 41.9043 13.3065 41.2267V41.4267C13.2659 42.1043 13.4853 42.7719 13.9199 43.2934L14.0132 43.2L13.9199 43.0934ZM42.6665 28.4L35.9999 32.1734L36.1199 32.2934L42.6665 28.5867C43.038 28.4122 43.3569 28.1428 43.591 27.8057C43.8251 27.4686 43.9661 27.0757 43.9999 26.6667C43.9249 27.0383 43.7657 27.3878 43.5346 27.6883C43.3034 27.9887 43.0065 28.2322 42.6665 28.4Z" fill="black"/>
<path opacity="0.25" d="M16.6799 10.16L42.6665 24.9333C43.0065 25.1011 43.3034 25.3446 43.5346 25.6451C43.7657 25.9456 43.9249 26.2951 43.9999 26.6667C43.9661 26.2576 43.8251 25.8648 43.591 25.5277C43.3569 25.1906 43.038 24.9212 42.6665 24.7467L16.6799 9.97333C14.8132 8.92 13.2932 9.8 13.2932 11.9333V12.1333C13.3332 9.98667 14.8265 9.10667 16.6799 10.16Z" fill="white"/>
<path d="M59.9141 18.1094C59.3776 18.1094 58.8984 18.0169 58.4766 17.832C58.0573 17.6471 57.7253 17.3906 57.4805 17.0625C57.2383 16.7318 57.1081 16.349 57.0898 15.9141H58.3164C58.332 16.151 58.4115 16.3568 58.5547 16.5312C58.7005 16.7031 58.8906 16.8359 59.125 16.9297C59.3594 17.0234 59.6198 17.0703 59.9063 17.0703C60.2214 17.0703 60.5 17.0156 60.7422 16.9062C60.987 16.7969 61.1784 16.6445 61.3164 16.4492C61.4544 16.2513 61.5234 16.0234 61.5234 15.7656C61.5234 15.4974 61.4544 15.2617 61.3164 15.0586C61.181 14.8529 60.9818 14.6914 60.7188 14.5742C60.4583 14.457 60.1432 14.3984 59.7734 14.3984H59.0977V13.4141H59.7734C60.0703 13.4141 60.3307 13.3607 60.5547 13.2539C60.7813 13.1471 60.9583 12.9987 61.0859 12.8086C61.2135 12.6159 61.2773 12.3906 61.2773 12.1328C61.2773 11.8854 61.2214 11.6706 61.1094 11.4883C61 11.3034 60.8438 11.1589 60.6406 11.0547C60.4401 10.9505 60.2031 10.8984 59.9297 10.8984C59.6693 10.8984 59.4258 10.9466 59.1992 11.043C58.9753 11.1367 58.793 11.2721 58.6523 11.4492C58.5117 11.6237 58.4362 11.8333 58.4258 12.0781H57.2578C57.2708 11.6458 57.3984 11.2656 57.6406 10.9375C57.8854 10.6094 58.2083 10.3529 58.6094 10.168C59.0104 9.98307 59.4557 9.89062 59.9453 9.89062C60.4583 9.89062 60.901 9.99089 61.2734 10.1914C61.6484 10.3893 61.9375 10.6536 62.1406 10.9844C62.3464 11.3151 62.4479 11.6771 62.4453 12.0703C62.4479 12.5182 62.3229 12.8984 62.0703 13.2109C61.8203 13.5234 61.487 13.7331 61.0703 13.8398V13.9023C61.6016 13.9831 62.013 14.194 62.3047 14.5352C62.599 14.8763 62.7448 15.2995 62.7422 15.8047C62.7448 16.2448 62.6224 16.6393 62.375 16.9883C62.1302 17.3372 61.7956 17.612 61.3711 17.8125C60.9466 18.0104 60.4609 18.1094 59.9141 18.1094ZM65.9805 18.1328C65.6003 18.1328 65.2565 18.0625 64.9492 17.9219C64.6419 17.7786 64.3984 17.5716 64.2188 17.3008C64.0417 17.0299 63.9531 16.6979 63.9531 16.3047C63.9531 15.9661 64.0182 15.6875 64.1484 15.4687C64.2786 15.25 64.4544 15.0768 64.6758 14.9492C64.8971 14.8216 65.1445 14.7253 65.418 14.6602C65.6914 14.5951 65.9701 14.5456 66.2539 14.5117C66.6133 14.4701 66.9049 14.4362 67.1289 14.4102C67.3529 14.3815 67.5156 14.3359 67.6172 14.2734C67.7188 14.2109 67.7695 14.1094 67.7695 13.9687V13.9414C67.7695 13.6003 67.6732 13.3359 67.4805 13.1484C67.2904 12.9609 67.0065 12.8672 66.6289 12.8672C66.2357 12.8672 65.9258 12.9544 65.6992 13.1289C65.4753 13.3008 65.3203 13.4922 65.2344 13.7031L64.1367 13.4531C64.2669 13.0885 64.457 12.7943 64.707 12.5703C64.9596 12.3437 65.25 12.1797 65.5781 12.0781C65.9063 11.974 66.2513 11.9219 66.6133 11.9219C66.8529 11.9219 67.1068 11.9505 67.375 12.0078C67.6458 12.0625 67.8984 12.1641 68.1328 12.3125C68.3698 12.4609 68.5638 12.6732 68.7148 12.9492C68.8659 13.2227 68.9414 13.5781 68.9414 14.0156V18H67.8008V17.1797H67.7539C67.6784 17.3307 67.5651 17.4792 67.4141 17.625C67.263 17.7708 67.069 17.8919 66.832 17.9883C66.5951 18.0846 66.3112 18.1328 65.9805 18.1328ZM66.2344 17.1953C66.5573 17.1953 66.8333 17.1315 67.0625 17.0039C67.2943 16.8763 67.4701 16.7096 67.5898 16.5039C67.7122 16.2956 67.7734 16.0729 67.7734 15.8359V15.0625C67.7318 15.1042 67.651 15.1432 67.5312 15.1797C67.4141 15.2135 67.2799 15.2435 67.1289 15.2695C66.9779 15.293 66.8307 15.3151 66.6875 15.3359C66.5443 15.3542 66.4245 15.3698 66.3281 15.3828C66.1016 15.4115 65.8945 15.4596 65.707 15.5273C65.5221 15.5951 65.3737 15.6927 65.2617 15.8203C65.1523 15.9453 65.0977 16.112 65.0977 16.3203C65.0977 16.6094 65.2044 16.8281 65.418 16.9766C65.6315 17.1224 65.9036 17.1953 66.2344 17.1953ZM74.333 12V13.0078H71.6494V18H70.4971V12H74.333ZM75.5674 20.25V12H76.708V12.9727H76.8057C76.8734 12.8477 76.971 12.7031 77.0986 12.5391C77.2262 12.375 77.4033 12.2318 77.6299 12.1094C77.8564 11.9844 78.1559 11.9219 78.5283 11.9219C79.0127 11.9219 79.445 12.0443 79.8252 12.2891C80.2054 12.5339 80.5036 12.8867 80.7197 13.3477C80.9385 13.8086 81.0479 14.3633 81.0479 15.0117C81.0479 15.6602 80.9398 16.2161 80.7236 16.6797C80.5075 17.1406 80.2106 17.4961 79.833 17.7461C79.4554 17.9935 79.0244 18.1172 78.54 18.1172C78.1755 18.1172 77.8773 18.056 77.6455 17.9336C77.4163 17.8112 77.2367 17.668 77.1064 17.5039C76.9762 17.3398 76.876 17.194 76.8057 17.0664H76.7354V20.25H75.5674ZM76.7119 15C76.7119 15.4219 76.7731 15.7917 76.8955 16.1094C77.0179 16.4271 77.195 16.6758 77.4268 16.8555C77.6585 17.0326 77.9424 17.1211 78.2783 17.1211C78.6273 17.1211 78.9189 17.0286 79.1533 16.8437C79.3877 16.6562 79.5648 16.4023 79.6846 16.082C79.807 15.7617 79.8682 15.401 79.8682 15C79.8682 14.6042 79.8083 14.2487 79.6885 13.9336C79.5713 13.6185 79.3942 13.3698 79.1572 13.1875C78.9229 13.0052 78.6299 12.9141 78.2783 12.9141C77.9398 12.9141 77.6533 13.0013 77.4189 13.1758C77.1872 13.3503 77.0114 13.5937 76.8916 13.9062C76.7718 14.2187 76.7119 14.5833 76.7119 15ZM82.8906 20.25C82.7161 20.25 82.5573 20.2357 82.4141 20.207C82.2708 20.181 82.1641 20.1523 82.0938 20.1211L82.375 19.1641C82.5885 19.2214 82.7786 19.2461 82.9453 19.2383C83.112 19.2305 83.2591 19.168 83.3867 19.0508C83.5169 18.9336 83.6315 18.7422 83.7305 18.4766L83.875 18.0781L81.6797 12H82.9297L84.4492 16.6562H84.5117L86.0313 12H87.2852L84.8125 18.8008C84.6979 19.1133 84.5521 19.3776 84.375 19.5938C84.1979 19.8125 83.987 19.9766 83.7422 20.0859C83.4974 20.1953 83.2135 20.25 82.8906 20.25ZM88.0273 16.4141H89.2227C89.2383 16.6589 89.349 16.8477 89.5547 16.9805C89.763 17.1133 90.0326 17.1797 90.3633 17.1797C90.6992 17.1797 90.9857 17.1081 91.2227 16.9648C91.4596 16.819 91.5781 16.5937 91.5781 16.2891C91.5781 16.1068 91.5326 15.9479 91.4414 15.8125C91.3529 15.6745 91.2266 15.5677 91.0625 15.4922C90.901 15.4167 90.7096 15.3789 90.4883 15.3789H89.5117V14.4609H90.4883C90.819 14.4609 91.0664 14.3854 91.2305 14.2344C91.3945 14.0833 91.4766 13.8945 91.4766 13.668C91.4766 13.4232 91.388 13.2266 91.2109 13.0781C91.0365 12.9271 90.793 12.8516 90.4805 12.8516C90.1628 12.8516 89.8984 12.9232 89.6875 13.0664C89.4766 13.207 89.3659 13.3893 89.3555 13.6133H88.1758C88.1836 13.2773 88.2852 12.9831 88.4805 12.7305C88.6784 12.4753 88.944 12.2773 89.2773 12.1367C89.6133 11.9935 89.9948 11.9219 90.4219 11.9219C90.8672 11.9219 91.2526 11.9935 91.5781 12.1367C91.9036 12.2799 92.1549 12.4779 92.332 12.7305C92.5117 12.9831 92.6016 13.2734 92.6016 13.6016C92.6016 13.9323 92.5026 14.2031 92.3047 14.4141C92.1094 14.6224 91.8542 14.7721 91.5391 14.8633V14.9258C91.7708 14.9414 91.9766 15.0117 92.1563 15.1367C92.3359 15.2617 92.4766 15.4271 92.5781 15.6328C92.6797 15.8385 92.7305 16.0716 92.7305 16.332C92.7305 16.6992 92.6289 17.0169 92.4258 17.2852C92.2253 17.5534 91.9466 17.7604 91.5898 17.9062C91.2357 18.0495 90.8307 18.1211 90.375 18.1211C89.9323 18.1211 89.5352 18.0521 89.1836 17.9141C88.8346 17.7734 88.5573 17.5755 88.3516 17.3203C88.1484 17.0651 88.0404 16.763 88.0273 16.4141ZM95.0811 16.3633L97.7256 12H98.9834V18H97.8389V13.6328L95.2061 18H93.9365V12H95.0811V16.3633ZM99.8096 13.0078V12H104.872V13.0078H102.915V18H101.774V13.0078H99.8096ZM108.414 18.1211C107.823 18.1211 107.314 17.9948 106.887 17.7422C106.462 17.487 106.134 17.1289 105.902 16.668C105.673 16.2044 105.559 15.6615 105.559 15.0391C105.559 14.4245 105.673 13.8828 105.902 13.4141C106.134 12.9453 106.457 12.5794 106.871 12.3164C107.288 12.0534 107.775 11.9219 108.332 11.9219C108.671 11.9219 108.999 11.9779 109.316 12.0898C109.634 12.2018 109.919 12.3776 110.172 12.6172C110.424 12.8568 110.624 13.168 110.77 13.5508C110.915 13.931 110.988 14.3932 110.988 14.9375V15.3516H106.219V14.4766H109.844C109.844 14.1693 109.781 13.8971 109.656 13.6602C109.531 13.4206 109.355 13.2318 109.129 13.0937C108.905 12.9557 108.642 12.8867 108.34 12.8867C108.012 12.8867 107.725 12.9674 107.48 13.1289C107.238 13.2878 107.051 13.4961 106.918 13.7539C106.788 14.0091 106.723 14.2865 106.723 14.5859V15.2695C106.723 15.6706 106.793 16.0117 106.934 16.293C107.077 16.5742 107.276 16.7891 107.531 16.9375C107.786 17.0833 108.085 17.1562 108.426 17.1562C108.647 17.1562 108.849 17.125 109.031 17.0625C109.214 16.9974 109.371 16.901 109.504 16.7734C109.637 16.6458 109.738 16.4883 109.809 16.3008L110.914 16.5C110.826 16.8255 110.667 17.1107 110.438 17.3555C110.211 17.5977 109.926 17.7865 109.582 17.9219C109.241 18.0547 108.852 18.1211 108.414 18.1211ZM115.195 18V12H117.684C118.361 12 118.897 12.1445 119.293 12.4336C119.689 12.7201 119.887 13.1094 119.887 13.6016C119.887 13.9531 119.775 14.2318 119.551 14.4375C119.327 14.6432 119.03 14.7813 118.66 14.8516C118.928 14.8828 119.174 14.9635 119.398 15.0937C119.622 15.2214 119.802 15.3932 119.938 15.6094C120.076 15.8255 120.145 16.0833 120.145 16.3828C120.145 16.7005 120.063 16.9818 119.898 17.2266C119.734 17.4687 119.496 17.6589 119.184 17.7969C118.874 17.9323 118.5 18 118.062 18H115.195ZM116.293 17.0234H118.062C118.352 17.0234 118.578 16.9544 118.742 16.8164C118.906 16.6784 118.988 16.4909 118.988 16.2539C118.988 15.9753 118.906 15.7565 118.742 15.5977C118.578 15.4362 118.352 15.3555 118.062 15.3555H116.293V17.0234ZM116.293 14.5H117.695C117.914 14.5 118.102 14.4687 118.258 14.4062C118.417 14.3437 118.538 14.2552 118.621 14.1406C118.707 14.0234 118.75 13.8854 118.75 13.7266C118.75 13.4948 118.655 13.3138 118.465 13.1836C118.275 13.0534 118.014 12.9883 117.684 12.9883H116.293V14.5Z" fill="white"/>
<defs>
<linearGradient id="paint0_linear_40_200" x1="29.0665" y1="11.6133" x2="6.6932" y2="33.9866" gradientUnits="userSpaceOnUse">
<stop stop-color="#00A0FF"/>
<stop offset="0.01" stop-color="#00A1FF"/>
<stop offset="0.26" stop-color="#00BEFF"/>
<stop offset="0.51" stop-color="#00D2FF"/>
<stop offset="0.76" stop-color="#00DFFF"/>
<stop offset="1" stop-color="#00E3FF"/>
</linearGradient>
<linearGradient id="paint1_linear_40_200" x1="45.1065" y1="26.6666" x2="12.8532" y2="26.6666" gradientUnits="userSpaceOnUse">
<stop stop-color="#FFE000"/>
<stop offset="0.41" stop-color="#FFBD00"/>
<stop offset="0.78" stop-color="#FFA500"/>
<stop offset="1" stop-color="#FF9C00"/>
</linearGradient>
<linearGradient id="paint2_linear_40_200" x1="33.1066" y1="29.7334" x2="2.75992" y2="60.0667" gradientUnits="userSpaceOnUse">
<stop stop-color="#FF3A44"/>
<stop offset="1" stop-color="#C31162"/>
</linearGradient>
<linearGradient id="paint3_linear_40_200" x1="9.73316" y1="0.239963" x2="23.2798" y2="13.7866" gradientUnits="userSpaceOnUse">
<stop stop-color="#32A071"/>
<stop offset="0.07" stop-color="#2DA771"/>
<stop offset="0.48" stop-color="#15CF74"/>
<stop offset="0.8" stop-color="#06E775"/>
<stop offset="1" stop-color="#00F076"/>
</linearGradient>
</defs>
</svg>
