<svg width="59" height="39" viewBox="0 0 59 39" fill="none" xmlns="http://www.w3.org/2000/svg">
<path d="M27.6 5.17502C26.2408 5.17502 24.8949 5.44273 23.6392 5.96287C22.3835 6.48301 21.2425 7.24538 20.2814 8.20647C19.3204 9.16755 18.558 10.3085 18.0378 11.5642C17.5177 12.82 17.25 14.1658 17.25 15.525C17.25 16.8842 17.5177 18.2301 18.0378 19.4858C18.558 20.7415 19.3204 21.8825 20.2814 22.8436C21.2425 23.8047 22.3835 24.567 23.6392 25.0872C24.8949 25.6073 26.2408 25.875 27.6 25.875H49.818L47.334 23.391C47.0798 23.1541 46.8759 22.8685 46.7345 22.5511C46.593 22.2337 46.517 21.891 46.5109 21.5436C46.5047 21.1962 46.5686 20.8511 46.6988 20.5289C46.8289 20.2067 47.0226 19.914 47.2683 19.6683C47.514 19.4226 47.8067 19.2289 48.1289 19.0988C48.4511 18.9687 48.7962 18.9048 49.1436 18.9109C49.491 18.917 49.8337 18.9931 50.1511 19.1345C50.4685 19.2759 50.7541 19.4798 50.991 19.734L57.891 26.634C58.3756 27.1192 58.6477 27.7768 58.6477 28.4625C58.6477 29.1482 58.3756 29.8059 57.891 30.291L50.991 37.191C50.7541 37.4452 50.4685 37.6491 50.1511 37.7906C49.8337 37.932 49.491 38.008 49.1436 38.0142C48.7962 38.0203 48.4511 37.9564 48.1289 37.8262C47.8067 37.6961 47.514 37.5024 47.2683 37.2567C47.0226 37.011 46.8289 36.7183 46.6988 36.3961C46.5686 36.0739 46.5047 35.7288 46.5109 35.3814C46.517 35.034 46.593 34.6914 46.7345 34.374C46.8759 34.0566 47.0798 33.7709 47.334 33.534L49.818 31.05H27.6C24.2244 31.0494 20.941 29.9486 18.2472 27.9143C15.5535 25.8801 13.5961 23.0234 12.6716 19.7769C11.7471 16.5304 11.9059 13.071 13.124 9.92284C14.3421 6.7747 16.553 4.10933 19.4219 2.33052C22.2907 0.551713 25.6612 -0.2436 29.0226 0.065067C32.3841 0.373734 35.5533 1.76956 38.0502 4.04109C40.5472 6.31261 42.2357 9.33606 42.8601 12.6534C43.4845 15.9707 43.0107 19.4012 41.5104 22.425H35.3142C36.6462 20.9358 37.5187 19.0929 37.8263 17.1188C38.134 15.1447 37.8637 13.1237 37.048 11.2998C36.2324 9.47586 34.9063 7.92703 33.2297 6.84022C31.5532 5.7534 29.598 5.17507 27.6 5.17502ZM2.5875 25.875H11.6955C13.0155 27.9005 14.7084 29.6567 16.6842 31.05H2.5875C1.90125 31.05 1.24311 30.7774 0.757861 30.2922C0.272611 29.8069 0 29.1488 0 28.4625C0 27.7763 0.272611 27.1181 0.757861 26.6329C1.24311 26.1476 1.90125 25.875 2.5875 25.875Z" fill="#FFE600"/>
</svg>
